<svg width="208" height="42" viewBox="0 0 208 42" fill="none" xmlns="http://www.w3.org/2000/svg">
<g filter="url(#filter0_d_47_1245)">
<rect x="4" y="4" width="200" height="30" rx="5" fill="white"/>
<rect x="2" y="2" width="204" height="34" rx="7" stroke="#C0C0C0" stroke-width="4"/>
</g>
<path d="M84.6262 21.955C84.6262 23.035 84.4912 23.785 83.9362 24.325C83.4562 24.79 82.6462 25.12 81.6112 25.12C80.5612 25.12 79.7812 24.82 79.3012 24.34C78.7762 23.815 78.5962 23.065 78.5962 21.97H80.7262C80.7262 22.405 80.7562 22.72 80.9512 22.945C81.0712 23.08 81.2812 23.2 81.6112 23.2C81.9412 23.2 82.1512 23.11 82.2862 22.93C82.4362 22.75 82.4962 22.465 82.4962 22.03C82.4962 21.01 82.3312 20.83 81.5662 20.515L80.2162 19.96C79.1362 19.51 78.6862 18.94 78.6862 17.275C78.6862 16.285 79.0012 15.46 79.6462 14.905C80.1562 14.47 80.8012 14.23 81.6112 14.23C82.5562 14.23 83.2462 14.47 83.7112 14.905C84.2962 15.445 84.5362 16.3 84.5362 17.38H82.4062C82.4062 17.005 82.4062 16.66 82.2262 16.42C82.1062 16.255 81.9262 16.15 81.6112 16.15C81.3112 16.15 81.1162 16.27 80.9962 16.435C80.8612 16.615 80.8162 16.84 80.8162 17.2C80.8162 17.875 80.9362 18.07 81.5512 18.325L82.8862 18.865C84.2362 19.42 84.6262 20.02 84.6262 21.955ZM90.8778 25H85.9578V14.32H90.8778V16.24H88.0878V18.655H90.4878V20.575H88.0878V23.08H90.8778V25ZM97.3884 16.24H95.5884V25H93.4584V16.24H91.6584V14.32H97.3884V16.24ZM103.717 16.24H101.917V25H99.7865V16.24H97.9865V14.32H103.717V16.24ZM106.97 25H104.84V14.32H106.97V25ZM114.829 25H113.014L110.749 19.78V25H108.619V14.32H110.479L112.699 19.54V14.32H114.829V25ZM122.32 21.835C122.32 23.965 121.135 25.12 119.305 25.12C118.15 25.12 117.445 24.64 116.965 24.04C116.215 23.125 116.17 21.715 116.17 19.66C116.17 17.605 116.215 16.195 116.965 15.28C117.445 14.68 118.15 14.2 119.305 14.2C120.205 14.2 120.895 14.5 121.405 14.995C121.975 15.565 122.275 16.405 122.32 17.38H120.19C120.175 16.93 120.115 16.12 119.305 16.12C118.915 16.12 118.705 16.3 118.585 16.54C118.33 17.035 118.3 18.37 118.3 19.66C118.3 20.95 118.33 22.285 118.585 22.78C118.705 23.02 118.915 23.2 119.305 23.2C120.01 23.2 120.19 22.54 120.19 21.955V20.845H119.305V19.12H122.32V21.835ZM129.377 21.955C129.377 23.035 129.242 23.785 128.687 24.325C128.207 24.79 127.397 25.12 126.362 25.12C125.312 25.12 124.532 24.82 124.052 24.34C123.527 23.815 123.347 23.065 123.347 21.97H125.477C125.477 22.405 125.507 22.72 125.702 22.945C125.822 23.08 126.032 23.2 126.362 23.2C126.692 23.2 126.902 23.11 127.037 22.93C127.187 22.75 127.247 22.465 127.247 22.03C127.247 21.01 127.082 20.83 126.317 20.515L124.967 19.96C123.887 19.51 123.437 18.94 123.437 17.275C123.437 16.285 123.752 15.46 124.397 14.905C124.907 14.47 125.552 14.23 126.362 14.23C127.307 14.23 127.997 14.47 128.462 14.905C129.047 15.445 129.287 16.3 129.287 17.38H127.157C127.157 17.005 127.157 16.66 126.977 16.42C126.857 16.255 126.677 16.15 126.362 16.15C126.062 16.15 125.867 16.27 125.747 16.435C125.612 16.615 125.567 16.84 125.567 17.2C125.567 17.875 125.687 18.07 126.302 18.325L127.637 18.865C128.987 19.42 129.377 20.02 129.377 21.955Z" fill="#C0C0C0"/>
<defs>
<filter id="filter0_d_47_1245" x="0" y="0" width="208" height="42" filterUnits="userSpaceOnUse" color-interpolation-filters="sRGB">
<feFlood flood-opacity="0" result="BackgroundImageFix"/>
<feColorMatrix in="SourceAlpha" type="matrix" values="0 0 0 0 0 0 0 0 0 0 0 0 0 0 0 0 0 0 127 0" result="hardAlpha"/>
<feOffset dy="4"/>
<feComposite in2="hardAlpha" operator="out"/>
<feColorMatrix type="matrix" values="0 0 0 0 0.525 0 0 0 0 0.525 0 0 0 0 0.525 0 0 0 1 0"/>
<feBlend mode="normal" in2="BackgroundImageFix" result="effect1_dropShadow_47_1245"/>
<feBlend mode="normal" in="SourceGraphic" in2="effect1_dropShadow_47_1245" result="shape"/>
</filter>
</defs>
</svg>
