<svg width="208" height="42" viewBox="0 0 208 42" fill="none" xmlns="http://www.w3.org/2000/svg">
<g filter="url(#filter0_d_47_1285)">
<rect x="4" y="4" width="200" height="30" rx="5" fill="white"/>
<rect x="2" y="2" width="204" height="34" rx="7" stroke="#C0C0C0" stroke-width="4"/>
</g>
<path d="M87.8718 19.66C87.8718 21.715 87.8268 23.125 87.0768 24.04C86.5968 24.64 85.8918 25.12 84.7368 25.12C83.5818 25.12 82.8768 24.64 82.3968 24.04C81.6468 23.125 81.6018 21.715 81.6018 19.66C81.6018 17.605 81.6468 16.195 82.3968 15.28C82.8768 14.68 83.5818 14.2 84.7368 14.2C85.8918 14.2 86.5968 14.68 87.0768 15.28C87.8268 16.195 87.8718 17.605 87.8718 19.66ZM85.7418 19.66C85.7418 18.37 85.7118 17.035 85.4568 16.54C85.3368 16.3 85.1268 16.12 84.7368 16.12C84.3468 16.12 84.1368 16.3 84.0168 16.54C83.7618 17.035 83.7318 18.37 83.7318 19.66C83.7318 20.95 83.7618 22.285 84.0168 22.78C84.1368 23.02 84.3468 23.2 84.7368 23.2C85.1268 23.2 85.3368 23.02 85.4568 22.78C85.7118 22.285 85.7418 20.95 85.7418 19.66ZM95.2267 17.725C95.2267 19.81 94.5367 21.13 92.2267 21.13H91.3417V25H89.2117V14.32H92.2267C94.5367 14.32 95.2267 15.64 95.2267 17.725ZM93.0967 17.725C93.0967 17.05 93.0667 16.24 92.1667 16.24H91.3417V19.21H92.1667C93.0667 19.21 93.0967 18.4 93.0967 17.725ZM101.653 16.24H99.853V25H97.723V16.24H95.923V14.32H101.653V16.24ZM104.906 25H102.776V14.32H104.906V25ZM112.51 19.66C112.51 21.715 112.465 23.125 111.715 24.04C111.235 24.64 110.53 25.12 109.375 25.12C108.22 25.12 107.515 24.64 107.035 24.04C106.285 23.125 106.24 21.715 106.24 19.66C106.24 17.605 106.285 16.195 107.035 15.28C107.515 14.68 108.22 14.2 109.375 14.2C110.53 14.2 111.235 14.68 111.715 15.28C112.465 16.195 112.51 17.605 112.51 19.66ZM110.38 19.66C110.38 18.37 110.35 17.035 110.095 16.54C109.975 16.3 109.765 16.12 109.375 16.12C108.985 16.12 108.775 16.3 108.655 16.54C108.4 17.035 108.37 18.37 108.37 19.66C108.37 20.95 108.4 22.285 108.655 22.78C108.775 23.02 108.985 23.2 109.375 23.2C109.765 23.2 109.975 23.02 110.095 22.78C110.35 22.285 110.38 20.95 110.38 19.66ZM120.06 25H118.245L115.98 19.78V25H113.85V14.32H115.71L117.93 19.54V14.32H120.06V25ZM127.402 21.955C127.402 23.035 127.267 23.785 126.712 24.325C126.232 24.79 125.422 25.12 124.387 25.12C123.337 25.12 122.557 24.82 122.077 24.34C121.552 23.815 121.372 23.065 121.372 21.97H123.502C123.502 22.405 123.532 22.72 123.727 22.945C123.847 23.08 124.057 23.2 124.387 23.2C124.717 23.2 124.927 23.11 125.062 22.93C125.212 22.75 125.272 22.465 125.272 22.03C125.272 21.01 125.107 20.83 124.342 20.515L122.992 19.96C121.912 19.51 121.462 18.94 121.462 17.275C121.462 16.285 121.777 15.46 122.422 14.905C122.932 14.47 123.577 14.23 124.387 14.23C125.332 14.23 126.022 14.47 126.487 14.905C127.072 15.445 127.312 16.3 127.312 17.38H125.182C125.182 17.005 125.182 16.66 125.002 16.42C124.882 16.255 124.702 16.15 124.387 16.15C124.087 16.15 123.892 16.27 123.772 16.435C123.637 16.615 123.592 16.84 123.592 17.2C123.592 17.875 123.712 18.07 124.327 18.325L125.662 18.865C127.012 19.42 127.402 20.02 127.402 21.955Z" fill="#C0C0C0"/>
<defs>
<filter id="filter0_d_47_1285" x="0" y="0" width="208" height="42" filterUnits="userSpaceOnUse" color-interpolation-filters="sRGB">
<feFlood flood-opacity="0" result="BackgroundImageFix"/>
<feColorMatrix in="SourceAlpha" type="matrix" values="0 0 0 0 0 0 0 0 0 0 0 0 0 0 0 0 0 0 127 0" result="hardAlpha"/>
<feOffset dy="4"/>
<feComposite in2="hardAlpha" operator="out"/>
<feColorMatrix type="matrix" values="0 0 0 0 0.525 0 0 0 0 0.525 0 0 0 0 0.525 0 0 0 1 0"/>
<feBlend mode="normal" in2="BackgroundImageFix" result="effect1_dropShadow_47_1285"/>
<feBlend mode="normal" in="SourceGraphic" in2="effect1_dropShadow_47_1285" result="shape"/>
</filter>
</defs>
</svg>
