<svg width="208" height="42" viewBox="0 0 208 42" fill="none" xmlns="http://www.w3.org/2000/svg">
<g filter="url(#filter0_d_47_1143)">
<rect x="4" y="4" width="200" height="30" rx="5" fill="white"/>
<rect x="2" y="2" width="204" height="34" rx="7" stroke="#434343" stroke-width="4"/>
</g>
<path d="M89.249 25H87.029L85.724 20.845H85.019V25H82.889V14.32H85.934C88.259 14.32 88.904 15.535 88.904 17.575C88.904 18.715 88.724 19.735 87.689 20.38L89.249 25ZM86.774 17.575C86.774 16.96 86.729 16.24 85.919 16.24H85.019V18.925H85.919C86.729 18.925 86.774 18.19 86.774 17.575ZM95.3676 25H90.4476V14.32H95.3676V16.24H92.5776V18.655H94.9776V20.575H92.5776V23.08H95.3676V25ZM102.358 21.955C102.358 23.035 102.223 23.785 101.668 24.325C101.188 24.79 100.378 25.12 99.3431 25.12C98.2931 25.12 97.5131 24.82 97.0331 24.34C96.5081 23.815 96.3281 23.065 96.3281 21.97H98.4581C98.4581 22.405 98.4881 22.72 98.6831 22.945C98.8031 23.08 99.0131 23.2 99.3431 23.2C99.6731 23.2 99.8831 23.11 100.018 22.93C100.168 22.75 100.228 22.465 100.228 22.03C100.228 21.01 100.063 20.83 99.2981 20.515L97.9481 19.96C96.8681 19.51 96.4181 18.94 96.4181 17.275C96.4181 16.285 96.7331 15.46 97.3781 14.905C97.8881 14.47 98.5331 14.23 99.3431 14.23C100.288 14.23 100.978 14.47 101.443 14.905C102.028 15.445 102.268 16.3 102.268 17.38H100.138C100.138 17.005 100.138 16.66 99.9581 16.42C99.8381 16.255 99.6581 16.15 99.3431 16.15C99.0431 16.15 98.8481 16.27 98.7281 16.435C98.5931 16.615 98.5481 16.84 98.5481 17.2C98.5481 17.875 98.6681 18.07 99.2831 18.325L100.618 18.865C101.968 19.42 102.358 20.02 102.358 21.955ZM109.645 22.135C109.645 22.99 109.36 23.71 108.85 24.235C108.28 24.82 107.53 25.12 106.63 25.12C105.73 25.12 104.98 24.82 104.41 24.235C103.9 23.71 103.615 22.99 103.615 22.135V14.32H105.745V22.24C105.745 22.93 106.15 23.2 106.63 23.2C107.11 23.2 107.515 22.93 107.515 22.24V14.32H109.645V22.135ZM118.884 25H116.754V19.435L115.584 23.095H114.489L113.349 19.45V25H111.219V14.32H113.094L115.044 19.555L116.994 14.32H118.884V25ZM125.455 25H120.535V14.32H125.455V16.24H122.665V18.655H125.065V20.575H122.665V23.08H125.455V25Z" fill="#434343"/>
<defs>
<filter id="filter0_d_47_1143" x="0" y="0" width="208" height="42" filterUnits="userSpaceOnUse" color-interpolation-filters="sRGB">
<feFlood flood-opacity="0" result="BackgroundImageFix"/>
<feColorMatrix in="SourceAlpha" type="matrix" values="0 0 0 0 0 0 0 0 0 0 0 0 0 0 0 0 0 0 127 0" result="hardAlpha"/>
<feOffset dy="4"/>
<feComposite in2="hardAlpha" operator="out"/>
<feColorMatrix type="matrix" values="0 0 0 0 0.204167 0 0 0 0 0.204167 0 0 0 0 0.204167 0 0 0 1 0"/>
<feBlend mode="normal" in2="BackgroundImageFix" result="effect1_dropShadow_47_1143"/>
<feBlend mode="normal" in="SourceGraphic" in2="effect1_dropShadow_47_1143" result="shape"/>
</filter>
</defs>
</svg>
