<svg width="208" height="42" viewBox="0 0 208 42" fill="none" xmlns="http://www.w3.org/2000/svg">
<g filter="url(#filter0_d_47_1176)">
<rect x="4" y="4" width="200" height="30" rx="5" fill="white"/>
<rect x="2" y="2" width="204" height="34" rx="7" stroke="#434343" stroke-width="4"/>
</g>
<path d="M87.352 25H85.132L83.827 20.845H83.122V25H80.992V14.32H84.037C86.362 14.32 87.007 15.535 87.007 17.575C87.007 18.715 86.827 19.735 85.792 20.38L87.352 25ZM84.877 17.575C84.877 16.96 84.832 16.24 84.022 16.24H83.122V18.925H84.022C84.832 18.925 84.877 18.19 84.877 17.575ZM93.4706 25H88.5506V14.32H93.4706V16.24H90.6806V18.655H93.0806V20.575H90.6806V23.08H93.4706V25ZM100.461 21.955C100.461 23.035 100.326 23.785 99.7712 24.325C99.2912 24.79 98.4812 25.12 97.4462 25.12C96.3962 25.12 95.6162 24.82 95.1362 24.34C94.6112 23.815 94.4312 23.065 94.4312 21.97H96.5612C96.5612 22.405 96.5912 22.72 96.7862 22.945C96.9062 23.08 97.1162 23.2 97.4462 23.2C97.7762 23.2 97.9862 23.11 98.1212 22.93C98.2712 22.75 98.3312 22.465 98.3312 22.03C98.3312 21.01 98.1662 20.83 97.4012 20.515L96.0512 19.96C94.9712 19.51 94.5212 18.94 94.5212 17.275C94.5212 16.285 94.8362 15.46 95.4812 14.905C95.9912 14.47 96.6362 14.23 97.4462 14.23C98.3912 14.23 99.0812 14.47 99.5462 14.905C100.131 15.445 100.371 16.3 100.371 17.38H98.2412C98.2412 17.005 98.2412 16.66 98.0612 16.42C97.9412 16.255 97.7612 16.15 97.4462 16.15C97.1462 16.15 96.9512 16.27 96.8312 16.435C96.6962 16.615 96.6512 16.84 96.6512 17.2C96.6512 17.875 96.7712 18.07 97.3862 18.325L98.7212 18.865C100.071 19.42 100.461 20.02 100.461 21.955ZM106.925 16.24H105.125V25H102.995V16.24H101.195V14.32H106.925V16.24ZM114.156 25H111.936L111.591 23.335H109.131L108.786 25H106.566L109.311 14.32H111.411L114.156 25ZM111.186 21.415L110.361 17.455L109.536 21.415H111.186ZM121.424 25H119.204L117.899 20.845H117.194V25H115.064V14.32H118.109C120.434 14.32 121.079 15.535 121.079 17.575C121.079 18.715 120.899 19.735 119.864 20.38L121.424 25ZM118.949 17.575C118.949 16.96 118.904 16.24 118.094 16.24H117.194V18.925H118.094C118.904 18.925 118.949 18.19 118.949 17.575ZM127.535 16.24H125.735V25H123.605V16.24H121.805V14.32H127.535V16.24Z" fill="#434343"/>
<defs>
<filter id="filter0_d_47_1176" x="0" y="0" width="208" height="42" filterUnits="userSpaceOnUse" color-interpolation-filters="sRGB">
<feFlood flood-opacity="0" result="BackgroundImageFix"/>
<feColorMatrix in="SourceAlpha" type="matrix" values="0 0 0 0 0 0 0 0 0 0 0 0 0 0 0 0 0 0 127 0" result="hardAlpha"/>
<feOffset dy="4"/>
<feComposite in2="hardAlpha" operator="out"/>
<feColorMatrix type="matrix" values="0 0 0 0 0.204167 0 0 0 0 0.204167 0 0 0 0 0.204167 0 0 0 1 0"/>
<feBlend mode="normal" in2="BackgroundImageFix" result="effect1_dropShadow_47_1176"/>
<feBlend mode="normal" in="SourceGraphic" in2="effect1_dropShadow_47_1176" result="shape"/>
</filter>
</defs>
</svg>
