<svg width="151" height="34" viewBox="0 0 151 34" fill="none" xmlns="http://www.w3.org/2000/svg">
<g filter="url(#filter0_d_47_1342)">
<mask id="path-1-outside-1_47_1342" maskUnits="userSpaceOnUse" x="-4" y="-4" width="159" height="37" fill="black">
<rect fill="white" x="-4" y="-4" width="159" height="37"/>
<path d="M15.33 5.64H10.53V29H4.85V5.64H0.0500001V0.52H15.33V5.64ZM24.005 29H18.325V0.52H24.005V29ZM42.2831 5.64H37.4831V29H31.8031V5.64H27.0031V0.52H42.2831V5.64ZM58.3981 29H45.2781V0.52H50.9581V23.88H58.3981V29ZM74.6872 29H61.5672V0.52H74.6872V5.64H67.2472V12.08H73.6472V17.2H67.2472V23.88H74.6872V29ZM98.8456 5.64H94.0456V29H88.3656V5.64H83.5656V0.52H98.8456V5.64ZM114.961 29H101.841V0.52H114.961V5.64H107.521V12.08H113.921V17.2H107.521V23.88H114.961V29ZM134.642 29H128.402L125.562 19.92L122.722 29H116.482L122.322 14.28L116.922 0.52H123.162L125.562 9.04L127.962 0.52H134.202L128.642 14.28L134.642 29ZM150.955 5.64H146.155V29H140.475V5.64H135.675V0.52H150.955V5.64Z"/>
</mask>
<path d="M15.33 5.64H10.53V29H4.85V5.64H0.0500001V0.52H15.33V5.64ZM24.005 29H18.325V0.52H24.005V29ZM42.2831 5.64H37.4831V29H31.8031V5.64H27.0031V0.52H42.2831V5.64ZM58.3981 29H45.2781V0.52H50.9581V23.88H58.3981V29ZM74.6872 29H61.5672V0.52H74.6872V5.64H67.2472V12.08H73.6472V17.2H67.2472V23.88H74.6872V29ZM98.8456 5.64H94.0456V29H88.3656V5.64H83.5656V0.52H98.8456V5.64ZM114.961 29H101.841V0.52H114.961V5.64H107.521V12.08H113.921V17.2H107.521V23.88H114.961V29ZM134.642 29H128.402L125.562 19.92L122.722 29H116.482L122.322 14.28L116.922 0.52H123.162L125.562 9.04L127.962 0.52H134.202L128.642 14.28L134.642 29ZM150.955 5.64H146.155V29H140.475V5.64H135.675V0.52H150.955V5.64Z" fill="white"/>
<path d="M15.33 5.64V9.64C17.5391 9.64 19.33 7.84914 19.33 5.64H15.33ZM10.53 5.64V1.64C8.32086 1.64 6.53 3.43086 6.53 5.64H10.53ZM10.53 29V33C12.7391 33 14.53 31.2091 14.53 29H10.53ZM4.85 29H0.85C0.85 31.2091 2.64086 33 4.85 33V29ZM4.85 5.64H8.85C8.85 3.43086 7.05914 1.64 4.85 1.64V5.64ZM0.0500001 5.64H-3.95C-3.95 7.84914 -2.15914 9.64 0.0500001 9.64V5.64ZM0.0500001 0.52V-3.48C-2.15914 -3.48 -3.95 -1.68914 -3.95 0.52H0.0500001ZM15.33 0.52H19.33C19.33 -1.68914 17.5391 -3.48 15.33 -3.48V0.52ZM15.33 1.64H10.53V9.64H15.33V1.64ZM6.53 5.64V29H14.53V5.64H6.53ZM10.53 25H4.85V33H10.53V25ZM8.85 29V5.64H0.85V29H8.85ZM4.85 1.64H0.0500001V9.64H4.85V1.64ZM4.05 5.64V0.52H-3.95V5.64H4.05ZM0.0500001 4.52H15.33V-3.48H0.0500001V4.52ZM11.33 0.52V5.64H19.33V0.52H11.33ZM24.005 29V33C26.2141 33 28.005 31.2091 28.005 29H24.005ZM18.325 29H14.325C14.325 31.2091 16.1159 33 18.325 33V29ZM18.325 0.52V-3.48C16.1159 -3.48 14.325 -1.68914 14.325 0.52H18.325ZM24.005 0.52H28.005C28.005 -1.68914 26.2141 -3.48 24.005 -3.48V0.52ZM24.005 25H18.325V33H24.005V25ZM22.325 29V0.52H14.325V29H22.325ZM18.325 4.52H24.005V-3.48H18.325V4.52ZM20.005 0.52V29H28.005V0.52H20.005ZM42.2831 5.64V9.64C44.4923 9.64 46.2831 7.84914 46.2831 5.64H42.2831ZM37.4831 5.64V1.64C35.274 1.64 33.4831 3.43086 33.4831 5.64H37.4831ZM37.4831 29V33C39.6923 33 41.4831 31.2091 41.4831 29H37.4831ZM31.8031 29H27.8031C27.8031 31.2091 29.594 33 31.8031 33V29ZM31.8031 5.64H35.8031C35.8031 3.43086 34.0123 1.64 31.8031 1.64V5.64ZM27.0031 5.64H23.0031C23.0031 7.84914 24.794 9.64 27.0031 9.64V5.64ZM27.0031 0.52V-3.48C24.794 -3.48 23.0031 -1.68914 23.0031 0.52H27.0031ZM42.2831 0.52H46.2831C46.2831 -1.68914 44.4923 -3.48 42.2831 -3.48V0.52ZM42.2831 1.64H37.4831V9.64H42.2831V1.64ZM33.4831 5.64V29H41.4831V5.64H33.4831ZM37.4831 25H31.8031V33H37.4831V25ZM35.8031 29V5.64H27.8031V29H35.8031ZM31.8031 1.64H27.0031V9.64H31.8031V1.64ZM31.0031 5.64V0.52H23.0031V5.64H31.0031ZM27.0031 4.52H42.2831V-3.48H27.0031V4.52ZM38.2831 0.52V5.64H46.2831V0.52H38.2831ZM58.3981 29V33C60.6073 33 62.3981 31.2091 62.3981 29H58.3981ZM45.2781 29H41.2781C41.2781 31.2091 43.069 33 45.2781 33V29ZM45.2781 0.52V-3.48C43.069 -3.48 41.2781 -1.68914 41.2781 0.52H45.2781ZM50.9581 0.52H54.9581C54.9581 -1.68914 53.1673 -3.48 50.9581 -3.48V0.52ZM50.9581 23.88H46.9581C46.9581 26.0891 48.749 27.88 50.9581 27.88V23.88ZM58.3981 23.88H62.3981C62.3981 21.6709 60.6073 19.88 58.3981 19.88V23.88ZM58.3981 25H45.2781V33H58.3981V25ZM49.2781 29V0.52H41.2781V29H49.2781ZM45.2781 4.52H50.9581V-3.48H45.2781V4.52ZM46.9581 0.52V23.88H54.9581V0.52H46.9581ZM50.9581 27.88H58.3981V19.88H50.9581V27.88ZM54.3981 23.88V29H62.3981V23.88H54.3981ZM74.6872 29V33C76.8963 33 78.6872 31.2091 78.6872 29H74.6872ZM61.5672 29H57.5672C57.5672 31.2091 59.358 33 61.5672 33V29ZM61.5672 0.52V-3.48C59.358 -3.48 57.5672 -1.68914 57.5672 0.52H61.5672ZM74.6872 0.52H78.6872C78.6872 -1.68914 76.8963 -3.48 74.6872 -3.48V0.52ZM74.6872 5.64V9.64C76.8963 9.64 78.6872 7.84914 78.6872 5.64H74.6872ZM67.2472 5.64V1.64C65.038 1.64 63.2472 3.43086 63.2472 5.64H67.2472ZM67.2472 12.08H63.2472C63.2472 14.2891 65.038 16.08 67.2472 16.08V12.08ZM73.6472 12.08H77.6472C77.6472 9.87086 75.8563 8.08 73.6472 8.08V12.08ZM73.6472 17.2V21.2C75.8563 21.2 77.6472 19.4091 77.6472 17.2H73.6472ZM67.2472 17.2V13.2C65.038 13.2 63.2472 14.9909 63.2472 17.2H67.2472ZM67.2472 23.88H63.2472C63.2472 26.0891 65.038 27.88 67.2472 27.88V23.88ZM74.6872 23.88H78.6872C78.6872 21.6709 76.8963 19.88 74.6872 19.88V23.88ZM74.6872 25H61.5672V33H74.6872V25ZM65.5672 29V0.52H57.5672V29H65.5672ZM61.5672 4.52H74.6872V-3.48H61.5672V4.52ZM70.6872 0.52V5.64H78.6872V0.52H70.6872ZM74.6872 1.64H67.2472V9.64H74.6872V1.64ZM63.2472 5.64V12.08H71.2472V5.64H63.2472ZM67.2472 16.08H73.6472V8.08H67.2472V16.08ZM69.6472 12.08V17.2H77.6472V12.08H69.6472ZM73.6472 13.2H67.2472V21.2H73.6472V13.2ZM63.2472 17.2V23.88H71.2472V17.2H63.2472ZM67.2472 27.88H74.6872V19.88H67.2472V27.88ZM70.6872 23.88V29H78.6872V23.88H70.6872ZM98.8456 5.64V9.64C101.055 9.64 102.846 7.84914 102.846 5.64H98.8456ZM94.0456 5.64V1.64C91.8365 1.64 90.0456 3.43086 90.0456 5.64H94.0456ZM94.0456 29V33C96.2548 33 98.0456 31.2091 98.0456 29H94.0456ZM88.3656 29H84.3656C84.3656 31.2091 86.1565 33 88.3656 33V29ZM88.3656 5.64H92.3656C92.3656 3.43086 90.5748 1.64 88.3656 1.64V5.64ZM83.5656 5.64H79.5656C79.5656 7.84914 81.3565 9.64 83.5656 9.64V5.64ZM83.5656 0.52V-3.48C81.3565 -3.48 79.5656 -1.68914 79.5656 0.52H83.5656ZM98.8456 0.52H102.846C102.846 -1.68914 101.055 -3.48 98.8456 -3.48V0.52ZM98.8456 1.64H94.0456V9.64H98.8456V1.64ZM90.0456 5.64V29H98.0456V5.64H90.0456ZM94.0456 25H88.3656V33H94.0456V25ZM92.3656 29V5.64H84.3656V29H92.3656ZM88.3656 1.64H83.5656V9.64H88.3656V1.64ZM87.5656 5.64V0.52H79.5656V5.64H87.5656ZM83.5656 4.52H98.8456V-3.48H83.5656V4.52ZM94.8456 0.52V5.64H102.846V0.52H94.8456ZM114.961 29V33C117.17 33 118.961 31.2091 118.961 29H114.961ZM101.841 29H97.8406C97.8406 31.2091 99.6315 33 101.841 33V29ZM101.841 0.52V-3.48C99.6315 -3.48 97.8406 -1.68914 97.8406 0.52H101.841ZM114.961 0.52H118.961C118.961 -1.68914 117.17 -3.48 114.961 -3.48V0.52ZM114.961 5.64V9.64C117.17 9.64 118.961 7.84914 118.961 5.64H114.961ZM107.521 5.64V1.64C105.311 1.64 103.521 3.43086 103.521 5.64H107.521ZM107.521 12.08H103.521C103.521 14.2891 105.311 16.08 107.521 16.08V12.08ZM113.921 12.08H117.921C117.921 9.87086 116.13 8.08 113.921 8.08V12.08ZM113.921 17.2V21.2C116.13 21.2 117.921 19.4091 117.921 17.2H113.921ZM107.521 17.2V13.2C105.311 13.2 103.521 14.9909 103.521 17.2H107.521ZM107.521 23.88H103.521C103.521 26.0891 105.311 27.88 107.521 27.88V23.88ZM114.961 23.88H118.961C118.961 21.6709 117.17 19.88 114.961 19.88V23.88ZM114.961 25H101.841V33H114.961V25ZM105.841 29V0.52H97.8406V29H105.841ZM101.841 4.52H114.961V-3.48H101.841V4.52ZM110.961 0.52V5.64H118.961V0.52H110.961ZM114.961 1.64H107.521V9.64H114.961V1.64ZM103.521 5.64V12.08H111.521V5.64H103.521ZM107.521 16.08H113.921V8.08H107.521V16.08ZM109.921 12.08V17.2H117.921V12.08H109.921ZM113.921 13.2H107.521V21.2H113.921V13.2ZM103.521 17.2V23.88H111.521V17.2H103.521ZM107.521 27.88H114.961V19.88H107.521V27.88ZM110.961 23.88V29H118.961V23.88H110.961ZM134.642 29V33C135.974 33 137.219 32.337 137.962 31.2317C138.705 30.1263 138.849 28.7236 138.346 27.4902L134.642 29ZM128.402 29L124.585 30.1941C125.107 31.8635 126.653 33 128.402 33V29ZM125.562 19.92L129.38 18.7259C128.858 17.0565 127.311 15.92 125.562 15.92C123.813 15.92 122.267 17.0565 121.745 18.7259L125.562 19.92ZM122.722 29V33C124.471 33 126.018 31.8635 126.54 30.1941L122.722 29ZM116.482 29L112.764 27.5249C112.275 28.7568 112.429 30.1508 113.173 31.2472C113.918 32.3436 115.157 33 116.482 33V29ZM122.322 14.28L126.04 15.7551C126.414 14.8124 126.416 13.7628 126.046 12.8187L122.322 14.28ZM116.922 0.52V-3.48C115.6 -3.48 114.362 -2.82616 113.617 -1.73332C112.872 -0.64049 112.715 0.750017 113.199 1.98127L116.922 0.52ZM123.162 0.52L127.012 -0.564553C126.527 -2.28889 124.954 -3.48 123.162 -3.48V0.52ZM125.562 9.04L121.712 10.1246C122.198 11.8489 123.771 13.04 125.562 13.04C127.354 13.04 128.927 11.8489 129.412 10.1246L125.562 9.04ZM127.962 0.52V-3.48C126.171 -3.48 124.598 -2.28889 124.112 -0.564553L127.962 0.52ZM134.202 0.52L137.911 2.01857C138.409 0.785637 138.262 -0.614262 137.518 -1.71671C136.775 -2.81916 135.532 -3.48 134.202 -3.48V0.52ZM128.642 14.28L124.934 12.7814C124.544 13.7466 124.545 14.8258 124.938 15.7898L128.642 14.28ZM134.642 25H128.402V33H134.642V25ZM132.22 27.8059L129.38 18.7259L121.745 21.1141L124.585 30.1941L132.22 27.8059ZM121.745 18.7259L118.905 27.8059L126.54 30.1941L129.38 21.1141L121.745 18.7259ZM122.722 25H116.482V33H122.722V25ZM120.2 30.4751L126.04 15.7551L118.604 12.8049L112.764 27.5249L120.2 30.4751ZM126.046 12.8187L120.646 -0.941271L113.199 1.98127L118.599 15.7413L126.046 12.8187ZM116.922 4.52H123.162V-3.48H116.922V4.52ZM119.312 1.60455L121.712 10.1246L129.412 7.95545L127.012 -0.564553L119.312 1.60455ZM129.412 10.1246L131.812 1.60455L124.112 -0.564553L121.712 7.95545L129.412 10.1246ZM127.962 4.52H134.202V-3.48H127.962V4.52ZM130.494 -0.978566L124.934 12.7814L132.351 15.7786L137.911 2.01857L130.494 -0.978566ZM124.938 15.7898L130.938 30.5098L138.346 27.4902L132.346 12.7702L124.938 15.7898ZM150.955 5.64V9.64C153.164 9.64 154.955 7.84914 154.955 5.64H150.955ZM146.155 5.64V1.64C143.946 1.64 142.155 3.43086 142.155 5.64H146.155ZM146.155 29V33C148.364 33 150.155 31.2091 150.155 29H146.155ZM140.475 29H136.475C136.475 31.2091 138.266 33 140.475 33V29ZM140.475 5.64H144.475C144.475 3.43086 142.684 1.64 140.475 1.64V5.64ZM135.675 5.64H131.675C131.675 7.84914 133.466 9.64 135.675 9.64V5.64ZM135.675 0.52V-3.48C133.466 -3.48 131.675 -1.68914 131.675 0.52H135.675ZM150.955 0.52H154.955C154.955 -1.68914 153.164 -3.48 150.955 -3.48V0.52ZM150.955 1.64H146.155V9.64H150.955V1.64ZM142.155 5.64V29H150.155V5.64H142.155ZM146.155 25H140.475V33H146.155V25ZM144.475 29V5.64H136.475V29H144.475ZM140.475 1.64H135.675V9.64H140.475V1.64ZM139.675 5.64V0.52H131.675V5.64H139.675ZM135.675 4.52H150.955V-3.48H135.675V4.52ZM146.955 0.52V5.64H154.955V0.52H146.955Z" fill="#9A22D2" mask="url(#path-1-outside-1_47_1342)"/>
</g>
<defs>
<filter id="filter0_d_47_1342" x="0.0499878" y="0.519997" width="150.905" height="33.48" filterUnits="userSpaceOnUse" color-interpolation-filters="sRGB">
<feFlood flood-opacity="0" result="BackgroundImageFix"/>
<feColorMatrix in="SourceAlpha" type="matrix" values="0 0 0 0 0 0 0 0 0 0 0 0 0 0 0 0 0 0 127 0" result="hardAlpha"/>
<feOffset dy="5"/>
<feComposite in2="hardAlpha" operator="out"/>
<feColorMatrix type="matrix" values="0 0 0 0 0.494118 0 0 0 0 0.117647 0 0 0 0 0.666667 0 0 0 1 0"/>
<feBlend mode="normal" in2="BackgroundImageFix" result="effect1_dropShadow_47_1342"/>
<feBlend mode="normal" in="SourceGraphic" in2="effect1_dropShadow_47_1342" result="shape"/>
</filter>
</defs>
</svg>
