<svg width="208" height="42" viewBox="0 0 208 42" fill="none" xmlns="http://www.w3.org/2000/svg">
<g filter="url(#filter0_d_47_1359)">
<rect x="4" y="4" width="200" height="30" rx="5" fill="white"/>
<rect x="2" y="2" width="204" height="34" rx="7" stroke="#FECB3E" stroke-width="4"/>
</g>
<path fill-rule="evenodd" clip-rule="evenodd" d="M183.047 22.5945C182.772 22.8542 182.398 23 182.009 23C181.62 23 181.246 22.8542 180.971 22.5945L175.43 17.3668C175.155 17.1067 175 16.754 175 16.3862C175 16.0185 175.155 15.6658 175.431 15.4059C175.706 15.1459 176.08 14.9999 176.469 15C176.859 15.0001 177.233 15.1463 177.508 15.4063L182.009 19.6544L186.51 15.4063C186.787 15.1537 187.158 15.0138 187.543 15.0167C187.928 15.0197 188.297 15.1654 188.569 15.4223C188.842 15.6792 188.996 16.0269 189 16.3904C189.003 16.7539 188.856 17.1042 188.588 17.3658L183.048 22.5955L183.047 22.5945Z" fill="#FECB3E"/>
<path d="M90.6155 21.955C90.6155 23.035 90.4805 23.785 89.9255 24.325C89.4455 24.79 88.6355 25.12 87.6005 25.12C86.5505 25.12 85.7705 24.82 85.2905 24.34C84.7655 23.815 84.5855 23.065 84.5855 21.97H86.7155C86.7155 22.405 86.7455 22.72 86.9405 22.945C87.0605 23.08 87.2705 23.2 87.6005 23.2C87.9305 23.2 88.1405 23.11 88.2755 22.93C88.4255 22.75 88.4855 22.465 88.4855 22.03C88.4855 21.01 88.3205 20.83 87.5555 20.515L86.2055 19.96C85.1255 19.51 84.6755 18.94 84.6755 17.275C84.6755 16.285 84.9905 15.46 85.6355 14.905C86.1455 14.47 86.7905 14.23 87.6005 14.23C88.5455 14.23 89.2355 14.47 89.7005 14.905C90.2855 15.445 90.5255 16.3 90.5255 17.38H88.3955C88.3955 17.005 88.3955 16.66 88.2155 16.42C88.0955 16.255 87.9155 16.15 87.6005 16.15C87.3005 16.15 87.1055 16.27 86.9855 16.435C86.8505 16.615 86.8055 16.84 86.8055 17.2C86.8055 17.875 86.9255 18.07 87.5405 18.325L88.8755 18.865C90.2255 19.42 90.6155 20.02 90.6155 21.955ZM96.8671 25H91.9471V14.32H96.8671V16.24H94.0771V18.655H96.4771V20.575H94.0771V23.08H96.8671V25ZM103.093 25H98.1727V14.32H100.303V23.08H103.093V25ZM109.201 25H104.281V14.32H109.201V16.24H106.411V18.655H108.811V20.575H106.411V23.08H109.201V25ZM116.342 21.955C116.297 22.975 115.937 23.83 115.382 24.355C114.842 24.865 114.212 25.12 113.327 25.12C112.172 25.12 111.467 24.64 110.987 24.04C110.237 23.125 110.192 21.715 110.192 19.66C110.192 17.605 110.237 16.195 110.987 15.28C111.467 14.68 112.172 14.2 113.327 14.2C114.212 14.2 114.842 14.455 115.382 14.965C115.937 15.49 116.297 16.33 116.342 17.35H114.212C114.197 17.05 114.167 16.75 114.047 16.525C113.927 16.27 113.717 16.12 113.327 16.12C112.937 16.12 112.727 16.3 112.607 16.54C112.352 17.035 112.322 18.37 112.322 19.66C112.322 20.95 112.352 22.285 112.607 22.78C112.727 23.02 112.937 23.2 113.327 23.2C113.717 23.2 113.927 23.035 114.047 22.78C114.167 22.555 114.197 22.255 114.212 21.955H116.342ZM122.596 16.24H120.796V25H118.666V16.24H116.866V14.32H122.596V16.24Z" fill="#FECB3E"/>
<defs>
<filter id="filter0_d_47_1359" x="0" y="0" width="208" height="42" filterUnits="userSpaceOnUse" color-interpolation-filters="sRGB">
<feFlood flood-opacity="0" result="BackgroundImageFix"/>
<feColorMatrix in="SourceAlpha" type="matrix" values="0 0 0 0 0 0 0 0 0 0 0 0 0 0 0 0 0 0 127 0" result="hardAlpha"/>
<feOffset dy="4"/>
<feComposite in2="hardAlpha" operator="out"/>
<feColorMatrix type="matrix" values="0 0 0 0 0.937255 0 0 0 0 0.65098 0 0 0 0 0.121569 0 0 0 1 0"/>
<feBlend mode="normal" in2="BackgroundImageFix" result="effect1_dropShadow_47_1359"/>
<feBlend mode="normal" in="SourceGraphic" in2="effect1_dropShadow_47_1359" result="shape"/>
</filter>
</defs>
</svg>
